# xmcd
# 
# Track frame offsets:
#     150
#     16060
#     27300
#     45560
#     57450
#     66390
#     82157
#     92252
#     106722
#     116840
#     132172
#     145417
#     157577
#     169135
# 
# Disc length: 2485
# 
# Revision: 8
# Processed by: cddbd v1.5.2PL0 Copyright (c) Steve Scherf et al.
# Submitted via: BonkEnc v1.0.6
# 
DISCID=b209b30e
DTITLE=Various Artist - Globo Special Hits 3
DYEAR=1997
DGENRE=Misc
TTITLE0=The Chi-Lites - Oh Girl
TTITLE1=Pat Boone - April Love
TTITLE2=Brook Benton - Rainy Night in Georgia
TTITLE3=The Platters - The Great Pretender
TTITLE4=Ray Charles - Hit the Road Jack
TTITLE5=Harold Melvin and The Blue Notes - If you don't know me by now
TTITLE6=Conway Twitty - It's Only Make Believe
TTITLE7=The Tremeloes - Silence Is Golden
TTITLE8=Frankie Avalon - Venus
TTITLE9=The Association - Cherish
TTITLE10=The Penguins - Earth Angel
TTITLE11=Brian Hyland - Sealed with a Kiss
TTITLE12=The Cascades - Rhythm of the Rain
TTITLE13=Ray Charles - Ruby
EXTD=
EXTT0=
EXTT1=
EXTT2=
EXTT3=
EXTT4=
EXTT5=
EXTT6=
EXTT7=
EXTT8=
EXTT9=
EXTT10=
EXTT11=
EXTT12=
EXTT13=
PLAYORDER=
